<svg width="1920" height="511" viewBox="0 0 1920 511" fill="none" xmlns="http://www.w3.org/2000/svg">
<g clip-path="url(#clip0_405_2)">
<rect width="1920" height="511" fill="#E1C5C5"/>
<path d="M146.08 197.84H154.24V281H146.08V241.04H100.96V281H92.8V197.84H100.96V233.96H146.08V197.84ZM171.686 249.92C171.686 244.48 172.446 239.76 173.966 235.76C175.566 231.68 177.606 228.28 180.086 225.56C182.646 222.84 185.526 220.84 188.726 219.56C192.006 218.2 195.366 217.52 198.806 217.52C206.406 217.52 212.446 220 216.926 224.96C221.486 229.92 223.766 237.56 223.766 247.88C223.766 248.52 223.726 249.16 223.646 249.8C223.646 250.44 223.606 251.04 223.526 251.6H179.966C180.206 259.2 182.086 265.04 185.606 269.12C189.126 273.2 194.726 275.24 202.406 275.24C206.646 275.24 210.006 274.84 212.486 274.04C214.966 273.24 216.766 272.56 217.886 272L219.326 278.72C218.206 279.36 216.086 280.12 212.966 281C209.926 281.88 206.326 282.32 202.166 282.32C196.726 282.32 192.086 281.52 188.246 279.92C184.406 278.32 181.246 276.08 178.766 273.2C176.286 270.32 174.486 266.92 173.366 263C172.246 259 171.686 254.64 171.686 249.92ZM215.726 245C215.566 238.52 214.046 233.48 211.166 229.88C208.286 226.28 204.206 224.48 198.926 224.48C196.126 224.48 193.606 225.04 191.366 226.16C189.206 227.28 187.286 228.8 185.606 230.72C184.006 232.56 182.726 234.72 181.766 237.2C180.886 239.68 180.366 242.28 180.206 245H215.726ZM256.868 282.08C254.228 282 251.908 281.64 249.908 281C247.988 280.44 246.348 279.56 244.988 278.36C243.708 277.08 242.708 275.48 241.988 273.56C241.348 271.56 241.028 269.08 241.028 266.12V189.32L248.828 187.88V265.88C248.828 267.8 248.988 269.36 249.308 270.56C249.708 271.68 250.268 272.6 250.988 273.32C251.708 273.96 252.628 274.44 253.748 274.76C254.948 275.08 256.348 275.36 257.948 275.6L256.868 282.08ZM287.454 282.08C284.814 282 282.494 281.64 280.494 281C278.574 280.44 276.934 279.56 275.574 278.36C274.294 277.08 273.294 275.48 272.574 273.56C271.934 271.56 271.614 269.08 271.614 266.12V189.32L279.414 187.88V265.88C279.414 267.8 279.574 269.36 279.894 270.56C280.294 271.68 280.854 272.6 281.574 273.32C282.294 273.96 283.214 274.44 284.334 274.76C285.534 275.08 286.934 275.36 288.534 275.6L287.454 282.08ZM355.24 250.04C355.24 254.92 354.52 259.36 353.08 263.36C351.72 267.36 349.76 270.76 347.2 273.56C344.72 276.36 341.76 278.56 338.32 280.16C334.88 281.68 331.08 282.44 326.92 282.44C322.76 282.44 318.96 281.68 315.52 280.16C312.08 278.56 309.08 276.36 306.52 273.56C304.04 270.76 302.08 267.36 300.64 263.36C299.28 259.36 298.6 254.92 298.6 250.04C298.6 245.16 299.28 240.72 300.64 236.72C302.08 232.72 304.04 229.32 306.52 226.52C309.08 223.64 312.08 221.44 315.52 219.92C318.96 218.32 322.76 217.52 326.92 217.52C331.08 217.52 334.88 218.32 338.32 219.92C341.76 221.44 344.72 223.64 347.2 226.52C349.76 229.32 351.72 232.72 353.08 236.72C354.52 240.72 355.24 245.16 355.24 250.04ZM346.96 250.04C346.96 242.28 345.16 236.12 341.56 231.56C337.96 226.92 333.08 224.6 326.92 224.6C320.76 224.6 315.88 226.92 312.28 231.56C308.68 236.12 306.88 242.28 306.88 250.04C306.88 257.8 308.68 263.96 312.28 268.52C315.88 273.08 320.76 275.36 326.92 275.36C333.08 275.36 337.96 273.08 341.56 268.52C345.16 263.96 346.96 257.8 346.96 250.04ZM406.788 218.96H431.508V225.56H406.788V258.56C406.788 262.08 407.068 264.96 407.628 267.2C408.268 269.36 409.148 271.04 410.268 272.24C411.388 273.44 412.748 274.24 414.348 274.64C415.948 275.04 417.708 275.24 419.628 275.24C422.908 275.24 425.548 274.88 427.548 274.16C429.548 273.36 431.108 272.64 432.228 272L434.148 278.48C433.028 279.2 431.068 280.04 428.268 281C425.468 281.88 422.428 282.32 419.148 282.32C415.308 282.32 412.068 281.84 409.428 280.88C406.868 279.84 404.788 278.32 403.188 276.32C401.668 274.24 400.588 271.68 399.948 268.64C399.308 265.6 398.988 262 398.988 257.84V200.72L406.788 199.28V218.96ZM445.875 281V189.32L453.675 187.88V220.76C456.235 219.8 458.835 219.08 461.475 218.6C464.115 218.04 466.755 217.76 469.395 217.76C474.195 217.76 478.195 218.44 481.395 219.8C484.595 221.16 487.155 223.12 489.075 225.68C490.995 228.16 492.315 231.16 493.035 234.68C493.835 238.2 494.235 242.08 494.235 246.32V281H486.435V248.84C486.435 244.44 486.115 240.72 485.475 237.68C484.915 234.64 483.915 232.16 482.475 230.24C481.115 228.32 479.275 226.96 476.955 226.16C474.635 225.28 471.715 224.84 468.195 224.84C466.835 224.84 465.355 224.96 463.755 225.2C462.235 225.44 460.795 225.72 459.435 226.04C458.075 226.28 456.835 226.56 455.715 226.88C454.675 227.2 453.995 227.44 453.675 227.6V281H445.875ZM510.475 249.92C510.475 244.48 511.235 239.76 512.755 235.76C514.355 231.68 516.395 228.28 518.875 225.56C521.435 222.84 524.315 220.84 527.515 219.56C530.795 218.2 534.155 217.52 537.595 217.52C545.195 217.52 551.235 220 555.715 224.96C560.275 229.92 562.555 237.56 562.555 247.88C562.555 248.52 562.515 249.16 562.435 249.8C562.435 250.44 562.395 251.04 562.315 251.6H518.755C518.995 259.2 520.875 265.04 524.395 269.12C527.915 273.2 533.515 275.24 541.195 275.24C545.435 275.24 548.795 274.84 551.275 274.04C553.755 273.24 555.555 272.56 556.675 272L558.115 278.72C556.995 279.36 554.875 280.12 551.755 281C548.715 281.88 545.115 282.32 540.955 282.32C535.515 282.32 530.875 281.52 527.035 279.92C523.195 278.32 520.035 276.08 517.555 273.2C515.075 270.32 513.275 266.92 512.155 263C511.035 259 510.475 254.64 510.475 249.92ZM554.515 245C554.355 238.52 552.835 233.48 549.955 229.88C547.075 226.28 542.995 224.48 537.715 224.48C534.915 224.48 532.395 225.04 530.155 226.16C527.995 227.28 526.075 228.8 524.395 230.72C522.795 232.56 521.515 234.72 520.555 237.2C519.675 239.68 519.155 242.28 518.995 245H554.515ZM601.057 217.76C603.617 217.76 606.017 217.96 608.257 218.36C610.577 218.76 612.177 219.16 613.057 219.56L611.497 226.28C610.857 225.96 609.537 225.64 607.537 225.32C605.617 224.92 603.057 224.72 599.857 224.72C596.497 224.72 593.777 224.96 591.697 225.44C589.697 225.92 588.377 226.32 587.737 226.64V281H579.937V221.84C581.937 220.96 584.697 220.08 588.217 219.2C591.737 218.24 596.017 217.76 601.057 217.76ZM621.1 249.92C621.1 244.48 621.86 239.76 623.38 235.76C624.98 231.68 627.02 228.28 629.5 225.56C632.06 222.84 634.94 220.84 638.14 219.56C641.42 218.2 644.78 217.52 648.22 217.52C655.82 217.52 661.86 220 666.34 224.96C670.9 229.92 673.18 237.56 673.18 247.88C673.18 248.52 673.14 249.16 673.06 249.8C673.06 250.44 673.02 251.04 672.94 251.6H629.38C629.62 259.2 631.5 265.04 635.02 269.12C638.54 273.2 644.14 275.24 651.82 275.24C656.06 275.24 659.42 274.84 661.9 274.04C664.38 273.24 666.18 272.56 667.3 272L668.74 278.72C667.62 279.36 665.5 280.12 662.38 281C659.34 281.88 655.74 282.32 651.58 282.32C646.14 282.32 641.5 281.52 637.66 279.92C633.82 278.32 630.66 276.08 628.18 273.2C625.7 270.32 623.9 266.92 622.78 263C621.66 259 621.1 254.64 621.1 249.92ZM665.14 245C664.98 238.52 663.46 233.48 660.58 229.88C657.7 226.28 653.62 224.48 648.34 224.48C645.54 224.48 643.02 225.04 640.78 226.16C638.62 227.28 636.7 228.8 635.02 230.72C633.42 232.56 632.14 234.72 631.18 237.2C630.3 239.68 629.78 242.28 629.62 245H665.14ZM699.682 269.6C699.762 270.32 699.802 270.96 699.802 271.52C699.802 272.08 699.802 272.56 699.802 272.96C699.802 277.92 699.082 282.68 697.642 287.24C696.282 291.8 694.362 296.08 691.882 300.08L686.122 297.44C687.962 293.92 689.242 290.2 689.962 286.28C690.762 282.44 691.162 278.44 691.162 274.28C691.162 273.32 691.122 272.52 691.042 271.88C691.042 271.24 691.002 270.48 690.922 269.6H699.682ZM747.878 197.84H756.038V281H747.878V197.84ZM785.564 193.28C785.564 197.84 784.884 202.2 783.524 206.36C782.164 210.44 780.124 214.52 777.404 218.6L771.644 215.96C773.644 212.12 775.004 208.6 775.724 205.4C776.524 202.2 776.924 199.2 776.924 196.4C776.924 195.52 776.924 194.76 776.924 194.12C776.924 193.48 776.884 192.8 776.804 192.08H785.564V193.28ZM804.82 221.12C807.14 220.48 810.14 219.76 813.82 218.96C817.58 218.16 822.42 217.76 828.34 217.76C836.18 217.76 841.86 220.04 845.38 224.6C845.78 224.28 846.54 223.76 847.66 223.04C848.86 222.24 850.34 221.44 852.1 220.64C853.86 219.84 855.9 219.16 858.22 218.6C860.62 218.04 863.26 217.76 866.14 217.76C870.86 217.76 874.66 218.48 877.54 219.92C880.5 221.28 882.78 223.24 884.38 225.8C885.98 228.28 887.06 231.28 887.62 234.8C888.18 238.32 888.46 242.16 888.46 246.32V281H880.66V248.84C880.66 244.76 880.46 241.24 880.06 238.28C879.74 235.24 879.02 232.76 877.9 230.84C876.86 228.84 875.34 227.36 873.34 226.4C871.34 225.36 868.74 224.84 865.54 224.84C863.14 224.84 860.94 225.08 858.94 225.56C857.02 225.96 855.34 226.48 853.9 227.12C852.46 227.76 851.26 228.4 850.3 229.04C849.42 229.68 848.78 230.16 848.38 230.48C849.1 232.56 849.62 234.92 849.94 237.56C850.34 240.12 850.54 242.84 850.54 245.72V281H842.74V248.84C842.74 244.76 842.54 241.24 842.14 238.28C841.82 235.24 841.1 232.76 839.98 230.84C838.86 228.84 837.26 227.36 835.18 226.4C833.18 225.36 830.5 224.84 827.14 224.84C823.38 224.84 820.18 225.04 817.54 225.44C814.98 225.84 813.34 226.2 812.62 226.52V281H804.82V221.12ZM1029.7 281C1026.53 275.68 1022.98 269.987 1019.06 263.92C1015.14 257.76 1011.08 251.6 1006.88 245.44C1002.68 239.187 998.39 233.167 994.003 227.38C989.71 221.5 985.603 216.227 981.683 211.56V281H964.323V183.98H978.743C982.476 187.9 986.49 192.567 990.783 197.98C995.076 203.3 999.37 208.853 1003.66 214.64C1008.05 220.427 1012.25 226.26 1016.26 232.14C1020.37 237.927 1024.01 243.34 1027.18 248.38V183.98H1044.68V281H1029.7ZM1092.88 269.1C1098.1 269.1 1102.07 268.82 1104.78 268.26V249.5C1103.84 249.22 1102.49 248.94 1100.72 248.66C1098.94 248.38 1096.98 248.24 1094.84 248.24C1092.97 248.24 1091.06 248.38 1089.1 248.66C1087.23 248.94 1085.5 249.453 1083.92 250.2C1082.42 250.947 1081.21 252.02 1080.28 253.42C1079.34 254.727 1078.88 256.407 1078.88 258.46C1078.88 262.473 1080.14 265.273 1082.66 266.86C1085.18 268.353 1088.58 269.1 1092.88 269.1ZM1091.48 205.96C1097.08 205.96 1101.79 206.66 1105.62 208.06C1109.44 209.46 1112.48 211.42 1114.72 213.94C1117.05 216.46 1118.68 219.54 1119.62 223.18C1120.64 226.727 1121.16 230.647 1121.16 234.94V279.32C1118.54 279.88 1114.58 280.533 1109.26 281.28C1104.03 282.12 1098.1 282.54 1091.48 282.54C1087.09 282.54 1083.08 282.12 1079.44 281.28C1075.8 280.44 1072.67 279.087 1070.06 277.22C1067.54 275.353 1065.53 272.927 1064.04 269.94C1062.64 266.953 1061.94 263.267 1061.94 258.88C1061.94 254.68 1062.73 251.133 1064.32 248.24C1066 245.347 1068.24 243.013 1071.04 241.24C1073.84 239.373 1077.06 238.067 1080.7 237.32C1084.43 236.48 1088.3 236.06 1092.32 236.06C1094.18 236.06 1096.14 236.2 1098.2 236.48C1100.25 236.667 1102.44 237.04 1104.78 237.6V234.8C1104.78 232.84 1104.54 230.973 1104.08 229.2C1103.61 227.427 1102.77 225.887 1101.56 224.58C1100.44 223.18 1098.9 222.107 1096.94 221.36C1095.07 220.613 1092.69 220.24 1089.8 220.24C1085.88 220.24 1082.28 220.52 1079.02 221.08C1075.75 221.64 1073.09 222.293 1071.04 223.04L1068.94 209.32C1071.08 208.573 1074.21 207.827 1078.32 207.08C1082.42 206.333 1086.81 205.96 1091.48 205.96ZM1193.14 219.68C1191.27 221.64 1188.8 224.393 1185.72 227.94C1182.73 231.487 1179.51 235.453 1176.06 239.84C1172.61 244.133 1169.11 248.66 1165.56 253.42C1162.11 258.087 1158.98 262.567 1156.18 266.86H1193.98V281H1135.74V270.5C1137.79 266.767 1140.36 262.707 1143.44 258.32C1146.52 253.933 1149.69 249.547 1152.96 245.16C1156.23 240.68 1159.45 236.433 1162.62 232.42C1165.89 228.407 1168.78 224.907 1171.3 221.92H1137.56V207.78H1193.14V219.68Z" fill="#7B7272"/>
<path d="M1417 432L0 432" stroke="white" stroke-width="6"/>
<path d="M1444.5 432C1444.5 439.361 1438.33 445.5 1430.5 445.5C1422.67 445.5 1416.5 439.361 1416.5 432C1416.5 424.639 1422.67 418.5 1430.5 418.5C1438.33 418.5 1444.5 424.639 1444.5 432Z" stroke="white" stroke-width="7"/>
</g>
<defs>
<clipPath id="clip0_405_2">
<rect width="1920" height="511" fill="white"/>
</clipPath>
</defs>
</svg>
